<svg width="512" height="512" viewBox="0 0 512 512" fill="none" xmlns="http://www.w3.org/2000/svg">
<rect width="512" height="512" fill="white"/>
<path d="M453.322 230.626C441.706 230.626 385.081 246.237 377.821 257.481L392.7 256.041C392.7 256.041 438.071 241.521 449.686 241.521C461.314 241.521 453.322 230.626 453.322 230.626Z" fill="#5C913B"/>
<path d="M334.774 66.7069C323.158 78.3225 299.927 148.016 299.927 182.863C299.927 217.709 323.158 252.556 276.696 275.787C230.234 299.018 218.606 264.172 218.606 217.709C218.606 171.247 230.234 124.785 241.849 101.554C253.465 78.3225 265.08 101.554 265.08 101.554C265.08 101.554 276.696 55.0914 288.311 55.0914C299.927 55.0914 299.927 78.3225 299.927 78.3225C299.927 78.3225 323.158 55.0914 334.774 55.0914C346.389 55.0914 334.774 66.7069 334.774 66.7069Z" fill="#99AAB5"/>
<path d="M346.389 217.709C311.542 217.709 299.927 264.172 276.696 264.172C253.465 264.172 265.08 229.325 241.849 229.325C218.618 229.325 125.693 171.247 125.693 101.554C125.693 31.8602 90.8466 66.7069 90.8466 89.938C79.2311 89.938 67.6155 108.36 67.6155 124.785C67.6155 136.4 67.6155 148.016 79.2311 159.631C67.6155 159.631 56 182.863 67.6155 194.478C56 229.325 79.2311 264.172 102.462 275.787C102.462 287.403 125.693 310.634 148.924 299.018C148.924 299.018 160.54 333.865 183.771 322.249C183.771 322.249 148.32 341.81 137.309 345.48C102.462 357.096 56 357.096 56 357.096C56 357.096 56 368.712 79.2311 380.327C79.2311 380.327 67.6155 391.943 79.2311 403.558C90.8466 415.174 102.462 415.174 102.462 415.174C102.462 415.174 90.8466 438.405 125.693 426.789C160.54 415.174 195.387 380.327 195.387 380.327C195.387 380.327 253.465 391.943 299.927 368.712C346.389 345.48 369.62 299.018 369.62 275.787C369.62 252.556 404.467 264.172 416.082 264.172C427.698 264.172 392.851 240.94 381.236 240.94C381.236 240.94 381.236 217.709 346.389 217.709Z" fill="#CCD6DD"/>
<path d="M381.817 252.777C381.817 252.777 318.651 283.268 289.612 330.09C267.543 365.68 257.298 430.634 257.298 430.634C257.298 430.634 256.798 437.185 267.833 404.139C279.449 369.292 293.585 331.1 317.919 309.031C356.762 273.824 373.093 268.376 388.333 259.665C392.189 257.469 385.812 251.685 381.817 252.777Z" fill="#5C913B"/>
<path d="M274.396 374.984C274.396 374.984 250.723 376.18 238.306 399.83C225.901 423.479 238.922 456.909 238.922 456.909C238.922 456.909 270.865 442.18 279.135 422.678C287.405 403.163 274.396 374.984 274.396 374.984ZM299.172 319.485C299.172 319.485 284.374 336.176 257.844 339.289C231.314 342.414 209.976 323.271 209.976 323.271C209.976 323.271 234.88 300.389 256.066 299.657C277.242 298.902 299.172 319.485 299.172 319.485ZM346.18 282.919C346.18 282.919 369.585 286.741 379.284 311.633C388.983 336.525 374.348 358.211 374.348 358.211C374.348 358.211 344.914 348.361 338.862 328.046C332.81 307.753 346.18 282.919 346.18 282.919Z" fill="#5C913B"/>
</svg>
