<svg width="512" height="512" viewBox="0 0 512 512" fill="none" xmlns="http://www.w3.org/2000/svg">
<rect width="512" height="512" fill="white"/>
<path d="M58.678 230.626C70.2935 230.626 126.919 246.237 134.179 257.481L119.3 256.041C119.3 256.041 73.9292 241.521 62.3137 241.521C50.6865 241.521 58.678 230.626 58.678 230.626Z" fill="#5C913B"/>
<path d="M177.226 66.7069C188.842 78.3225 212.073 148.016 212.073 182.863C212.073 217.709 188.842 252.556 235.304 275.787C281.767 299.018 293.394 264.172 293.394 217.709C293.394 171.247 281.767 124.785 270.151 101.554C258.535 78.3225 246.92 101.554 246.92 101.554C246.92 101.554 235.304 55.0914 223.689 55.0914C212.073 55.0914 212.073 78.3225 212.073 78.3225C212.073 78.3225 188.842 55.0914 177.226 55.0914C165.611 55.0914 177.226 66.7069 177.226 66.7069Z" fill="#99AAB5"/>
<path d="M165.611 217.709C200.458 217.709 212.073 264.172 235.304 264.172C258.535 264.172 246.92 229.325 270.151 229.325C293.382 229.325 386.307 171.247 386.307 101.554C386.307 31.8602 421.153 66.7069 421.153 89.938C432.769 89.938 444.384 108.36 444.384 124.785C444.384 136.4 444.384 148.016 432.769 159.631C444.384 159.631 456 182.863 444.384 194.478C456 229.325 432.769 264.172 409.538 275.787C409.538 287.403 386.307 310.634 363.075 299.018C363.075 299.018 351.46 333.865 328.229 322.249C328.229 322.249 363.679 341.81 374.691 345.48C409.538 357.096 456 357.096 456 357.096C456 357.096 456 368.712 432.769 380.327C432.769 380.327 444.384 391.943 432.769 403.558C421.153 415.174 409.538 415.174 409.538 415.174C409.538 415.174 421.153 438.405 386.307 426.789C351.46 415.174 316.613 380.327 316.613 380.327C316.613 380.327 258.535 391.943 212.073 368.712C165.611 345.48 142.38 299.018 142.38 275.787C142.38 252.556 107.533 264.172 95.9175 264.172C84.3019 264.172 119.149 240.94 130.764 240.94C130.764 240.94 130.764 217.709 165.611 217.709Z" fill="#CCD6DD"/>
<path d="M130.183 252.777C130.183 252.777 193.349 283.268 222.388 330.09C244.457 365.68 254.702 430.634 254.702 430.634C254.702 430.634 255.202 437.185 244.167 404.139C232.551 369.292 218.415 331.1 194.081 309.031C155.238 273.824 138.907 268.376 123.667 259.665C119.811 257.469 126.188 251.685 130.183 252.777Z" fill="#5C913B"/>
<path d="M237.604 374.984C237.604 374.984 261.277 376.18 273.694 399.83C286.099 423.479 273.078 456.909 273.078 456.909C273.078 456.909 241.135 442.18 232.865 422.678C224.595 403.163 237.604 374.984 237.604 374.984ZM212.828 319.485C212.828 319.485 227.626 336.176 254.156 339.289C280.686 342.414 302.024 323.272 302.024 323.272C302.024 323.272 277.12 300.389 255.933 299.657C234.758 298.902 212.828 319.485 212.828 319.485ZM165.82 282.919C165.82 282.919 142.415 286.741 132.716 311.633C123.017 336.525 137.652 358.211 137.652 358.211C137.652 358.211 167.086 348.361 173.138 328.046C179.189 307.753 165.82 282.919 165.82 282.919Z" fill="#5C913B"/>
</svg>
